<svg xmlns="http://www.w3.org/2000/svg" width="192" height="192" viewBox="0 0 192 192">
  <!-- Rounded square background -->
  <rect width="192" height="192" rx="38" ry="38" fill="#6B7B8D"/>

  <!-- Speech bubble -->
  <path d="M40 46 h112 a16 16 0 0 1 16 16 v60 a16 16 0 0 1 -16 16 h-60 l-20 22 v-22 h-32 a16 16 0 0 1 -16 -16 v-60 a16 16 0 0 1 16 -16 z" fill="white" opacity="0.95"/>

  <!-- Torii gate inside speech bubble -->
  <g fill="none" stroke="#6B7B8D" stroke-width="5" stroke-linecap="round" stroke-linejoin="round">
    <!-- Top beam (kasagi) - slightly curved -->
    <path d="M68 68 Q96 62 124 68"/>
    <!-- Second beam (nuki) -->
    <line x1="72" y1="78" x2="120" y2="78"/>
    <!-- Left pillar -->
    <line x1="78" y1="78" x2="78" y2="118"/>
    <!-- Right pillar -->
    <line x1="114" y1="78" x2="114" y2="118"/>
  </g>
</svg>
